<svg version="1.1" id="Layer_1" xmlns="http://www.w3.org/2000/svg" xmlns:xlink="http://www.w3.org/1999/xlink" x="0px" y="0px"
	 width="100%" viewBox="0 0 612 612" enable-background="new 0 0 612 612" xml:space="preserve">
<path fill="none" opacity="1.000000" stroke="#000000" stroke-linecap="round" stroke-linejoin="round" stroke-width="10.000000"
	d="
M209.500000,192.000000 
	C192.637787,188.980743 174.183563,200.243301 168.398361,215.461365 
	C166.333313,220.893494 165.362732,226.254959 165.456726,232.000702 
	C165.614792,241.664795 164.910019,251.379440 165.660934,260.987427 
	C166.459869,271.209991 165.014542,281.321259 165.412918,291.503418 
	C165.810089,301.654510 165.500000,311.833344 165.500000,322.000000 
	C165.500000,332.000000 165.500000,342.000000 165.500000,352.000000 
	C165.500000,362.166656 165.500000,372.333344 165.500000,382.500000 
	C165.500000,392.666656 165.231598,402.842194 165.566162,412.997833 
	C166.010361,426.481567 172.589462,436.431213 183.969498,443.548767 
	C191.091431,448.003143 198.754196,449.535370 207.000015,449.529053 
	C274.333313,449.477448 341.666687,449.537872 408.999969,449.476593 
	C428.855988,449.458527 443.872650,436.848297 448.466095,417.491943 
	C448.728180,416.387482 448.500000,415.166656 448.500000,414.000000 
	C448.500000,368.166656 448.739868,322.330872 448.269379,276.502380 
	C448.188782,268.652283 448.946350,260.846191 448.578003,252.996338 
	C448.219025,245.346512 448.436890,237.666046 448.512390,230.000122 
	C448.701477,210.805038 435.653900,197.995804 419.956024,192.628601 
	C416.421875,191.420242 412.337433,191.628525 408.498962,191.552078 
	C403.751160,191.457520 402.741425,192.645752 402.494843,197.499741 
	C402.316376,201.013321 402.778442,204.498779 401.578705,208.026764 
	C399.186646,215.060989 392.585632,219.848526 384.014343,218.414368 
	C376.933777,217.229614 370.927826,210.321472 371.435242,202.995514 
	C371.665588,199.670380 370.314545,195.879974 370.845215,193.065094 
	C372.165436,186.062897 369.717285,178.587601 373.511414,172.006577 
	C376.270172,167.221436 384.832184,163.085663 389.486176,164.544113 
	C397.802185,167.150146 401.982361,172.661453 402.478241,180.001465 
	C402.750854,184.036880 401.802307,188.212204 404.000000,192.000000 
"/>
<path fill="none" opacity="1.000000" stroke="#000000" stroke-linecap="round" stroke-linejoin="round" stroke-width="11.000000"
	d="
M446.500000,269.000000 
	C353.500000,269.000000 260.500000,269.000000 167.500000,269.000000 
"/>
<path fill="none" opacity="1.000000" stroke="#000000" stroke-linecap="round" stroke-linejoin="round" stroke-width="10.000000"
	d="
M369.500000,192.000000 
	C367.666656,191.833344 365.833466,191.522598 363.999969,191.521240 
	C326.000000,191.493057 288.000000,191.493057 250.000015,191.521240 
	C248.166565,191.522598 246.333328,191.833344 244.500000,192.000015 
"/>
<path fill="none" opacity="1.000000" stroke="#000000" stroke-linecap="round" stroke-linejoin="round" stroke-width="10.000000"
	d="
M252.500000,381.000000 
	C252.884506,376.948822 251.057022,375.346252 246.998703,375.449158 
	C239.836639,375.630737 232.666443,375.533752 225.500092,375.486237 
	C221.729965,375.461243 219.803131,376.850067 219.937836,381.002014 
	C220.164703,387.994659 220.142929,395.004089 219.942413,401.998352 
	C219.834900,405.748535 221.328278,407.496216 225.000000,407.498627 
	C232.333328,407.503418 239.668793,407.605713 246.999161,407.458435 
	C251.091843,407.376221 252.923096,405.297150 252.439178,401.006866 
	C251.703049,394.480652 251.962296,388.000000 252.500000,381.500000 
"/>
<path fill="none" opacity="1.000000" stroke="#000000" stroke-linecap="round" stroke-linejoin="round" stroke-width="11.000000"
	d="
M321.500000,376.500000 
	C318.830200,374.776703 315.846771,375.591553 312.999329,375.532990 
	C307.501648,375.419922 301.999664,375.537750 296.500122,375.486969 
	C292.729889,375.452148 290.803162,376.850067 290.937866,381.002014 
	C291.164734,387.994659 291.142975,395.004089 290.942444,401.998352 
	C290.834930,405.748535 292.328278,407.496216 296.000000,407.498627 
	C303.333344,407.503418 310.666718,407.484100 317.999969,407.508728 
	C320.527802,407.517212 322.938446,406.811615 322.916718,404.000641 
	C322.847168,395.001251 323.610413,385.982513 322.500000,377.000000 
"/>
<path fill="none" opacity="1.000000" stroke="#000000" stroke-linecap="round" stroke-linejoin="round" stroke-width="10.000000"
	d="
M244.000000,192.000000 
	C241.871124,188.379135 242.272430,184.357910 242.571152,180.505524 
	C243.173126,172.742188 236.478683,164.923599 227.496567,164.593536 
	C219.248642,164.290451 212.122177,170.404800 211.607620,179.506088 
	C211.156982,187.476944 210.392151,195.491928 211.484314,203.502136 
	C212.719727,212.562881 218.257660,219.120789 228.503799,218.570938 
	C236.301804,218.152496 243.455215,209.918518 242.599655,202.488525 
	C242.218643,199.179504 241.735947,195.568726 244.000000,192.500000 
"/>
<path fill="none" opacity="1.000000" stroke="#000000" stroke-linecap="round" stroke-linejoin="round" stroke-width="10.000000"
	d="
M392.500000,382.000000 
	C387.333313,387.166656 382.225220,392.393738 376.979614,397.478973 
	C373.407410,400.942047 371.837311,401.043549 368.566498,397.439636 
	C365.962341,394.570221 361.821198,392.440613 362.500000,387.500000 
"/>
<path fill="none" opacity="1.000000" stroke="#000000" stroke-linecap="round" stroke-linejoin="round" stroke-width="11.000000"
	d="
M366.000000,311.000000 
	C361.664551,311.798737 361.216614,315.102814 361.554352,318.494598 
	C362.153778,324.513855 362.187134,330.488495 361.532959,336.503571 
	C360.995239,341.447845 362.484344,342.969086 367.500031,342.991943 
	C374.499878,343.023865 381.500763,342.938507 388.499695,343.024384 
	C392.351410,343.071655 394.071625,341.351410 394.024384,337.499695 
	C393.938507,330.500763 393.938538,323.499237 394.024353,316.500305 
	C394.071625,312.648621 392.351318,310.931030 388.499725,310.975433 
	C381.167358,311.060028 373.833344,311.000000 366.500000,311.000000 
"/>
<path fill="none" opacity="1.000000" stroke="#000000" stroke-linecap="round" stroke-linejoin="round" stroke-width="11.000000"
	d="
M295.000000,311.000000 
	C292.134033,311.440552 290.976898,313.203339 290.989197,316.000061 
	C291.021301,323.333252 291.012970,330.666687 290.994232,338.000000 
	C290.985596,341.375977 292.624023,343.014404 296.000000,343.005768 
	C303.333313,342.987030 310.666687,342.987030 318.000000,343.005768 
	C321.375977,343.014404 323.014404,341.375977 323.005768,338.000000 
	C322.987030,330.666687 322.985352,323.333313 323.006134,316.000031 
	C323.016724,312.266541 320.994812,310.944336 317.499786,310.978363 
	C310.167145,311.049683 302.833344,311.000000 295.500000,311.000000 
"/>
<path fill="none" opacity="1.000000" stroke="#000000" stroke-linecap="round" stroke-linejoin="round" stroke-width="11.000000"
	d="
M224.000000,311.000000 
	C221.134033,311.440552 219.976913,313.203339 219.989151,316.000061 
	C220.021255,323.333252 220.006592,330.666656 219.997055,338.000000 
	C219.992691,341.355072 221.653900,343.004150 225.000000,343.001740 
	C232.666672,342.996216 240.333588,342.962708 247.999893,343.015625 
	C251.883087,343.042419 252.764938,340.577087 252.455582,337.504486 
	C251.766190,330.656799 251.919418,323.842255 252.458435,316.996735 
	C252.792755,312.751007 251.488037,310.717804 246.496826,310.922577 
	C239.175827,311.222961 231.833328,311.000000 224.500000,311.000000 
"/>
</svg>